<svg width="40" height="40" viewBox="0 0 40 40" fill="none" xmlns="http://www.w3.org/2000/svg">
<path d="M20.5872 19.0147C23.8778 19.0147 26.5431 16.3495 26.5431 13.0588C26.5431 9.76821 23.8778 7.10295 20.5872 7.10295C17.2966 7.10295 14.6313 9.76821 14.6313 13.0588C14.6313 16.3495 17.2966 19.0147 20.5872 19.0147ZM19.1131 21.7941C14.2243 21.7941 10.2637 25.7548 10.2637 30.6436C10.2637 31.4575 10.9238 32.1177 11.7378 32.1177H29.4367C30.2506 32.1177 30.9107 31.4575 30.9107 30.6436C30.9107 25.7548 26.9501 21.7941 22.0613 21.7941H19.1131Z" fill="black"/>
<path d="M20 0C31.0457 0 40 8.95431 40 20C40 31.0457 31.0457 40 20 40C8.95431 40 0 31.0457 0 20C0 8.95431 8.95431 0 20 0ZM20.001 2.66699C10.4281 2.66704 2.66797 10.4271 2.66797 20C2.66797 29.5729 10.4281 37.333 20.001 37.333C29.5739 37.333 37.334 29.5729 37.334 20C37.334 10.4271 29.5739 2.66699 20.001 2.66699Z" fill="black"/>
</svg>
