<svg width="34" height="34" viewBox="0 0 34 34" fill="none" xmlns="http://www.w3.org/2000/svg">
<path d="M17.4996 16.1625C20.2966 16.1625 22.5621 13.897 22.5621 11.1C22.5621 8.30297 20.2966 6.0375 17.4996 6.0375C14.7026 6.0375 12.4371 8.30297 12.4371 11.1C12.4371 13.897 14.7026 16.1625 17.4996 16.1625ZM16.2466 18.525C12.0912 18.525 8.72461 21.8916 8.72461 26.047C8.72461 26.7389 9.2857 27.3 9.97758 27.3H25.0216C25.7135 27.3 26.2746 26.7389 26.2746 26.047C26.2746 21.8916 22.908 18.525 18.7526 18.525H16.2466Z" fill="white"/>
<path d="M17 0C26.3888 0 34 7.61116 34 17C34 26.3888 26.3888 34 17 34C7.61116 34 0 26.3888 0 17C0 7.61116 7.61116 0 17 0ZM17 2.2666C8.863 2.2666 2.2666 8.863 2.2666 17C2.2666 25.137 8.863 31.7334 17 31.7334C25.137 31.7334 31.7334 25.137 31.7334 17C31.7334 8.863 25.137 2.2666 17 2.2666Z" fill="white"/>
</svg>
