<svg width="32" height="32" viewBox="0 0 32 32" fill="none" xmlns="http://www.w3.org/2000/svg">
<path fill-rule="evenodd" clip-rule="evenodd" d="M16.0006 0C20.7671 0 25.4619 0.496366 29.5778 1.43641C29.8263 1.49311 29.9998 1.69977 30 1.9376V18.2444C29.9453 24.0124 21.9501 29.9184 16.1991 31.9659C16.1351 31.9887 16.0675 32 16 32C15.9326 32 15.8651 31.9887 15.801 31.9659C10.0471 29.9178 2.05092 24.011 2 18.2485V1.9376C2 1.7003 2.17476 1.49338 2.4233 1.43641C6.53945 0.496628 11.2341 0 16.0006 0ZM18.6013 11.9053L18.0148 13.8261L19.9933 13.8263H20.5752L23.0599 13.8265L12.8426 24.8888L13.3615 22.7931L14.4006 18.5961L14.893 16.6074H11.5727L11.7703 15.4989L11.8832 14.8651L12.161 13.307L12.3574 12.2049L13.2652 7.11108H16.1406H17.255H17.811H18.3136H20.0652L18.7106 11.5474L18.6013 11.9053Z" fill="#D9D9D9" fill-opacity="0.25"/>
</svg>
