<svg width="32" height="32" viewBox="0 0 32 32" fill="none" xmlns="http://www.w3.org/2000/svg">
<g clip-path="url(#clip0_1549_678)">
<path d="M31.7912 19.6965C31.6517 19.172 31.4432 18.6654 31.147 18.1726L29.8804 18.3594C29.6524 18.0673 29.3932 17.8101 29.1103 17.5909L29.2245 16.2533C28.7608 15.9791 28.2612 15.7772 27.7421 15.6541L26.972 16.7265C26.6217 16.6898 26.2651 16.6979 25.9093 16.7541L25.0892 15.7237C24.5897 15.8702 24.107 16.089 23.6376 16.3999L23.8154 17.7295C23.5372 17.9689 23.2922 18.241 23.0834 18.5379L21.8091 18.4181C21.548 18.9045 21.3556 19.4292 21.2383 19.9742L22.2599 20.7826C22.2249 21.1502 22.2326 21.5246 22.2862 21.8981L21.3046 22.7589C21.4441 23.2833 21.6526 23.79 21.9488 24.2828L23.2154 24.0961C23.4434 24.3882 23.7027 24.6453 23.9855 24.8645L23.8714 26.2021C24.3347 26.4763 24.8346 26.6782 25.3537 26.8014L26.1239 25.7289C26.474 25.7656 26.8307 25.7575 27.1865 25.7013L28.0066 26.7317C28.5062 26.5852 28.9888 26.3664 29.4583 26.0555L29.2804 24.7259C29.5587 24.4865 29.8037 24.2144 30.0125 23.9175L31.2868 24.0373C31.5479 23.5509 31.7403 23.0262 31.8575 22.4812L30.8359 21.6728C30.8709 21.3052 30.8632 20.9308 30.8096 20.5574L31.7912 19.6965ZM27.494 23.4656C26.3165 24.014 24.9384 23.4569 24.4156 22.2208C23.8931 20.9847 24.4238 19.5382 25.6014 18.9894C26.7789 18.4407 28.157 18.998 28.6797 20.2341C29.2024 21.4702 28.6712 22.9168 27.494 23.4656Z" fill="#D9D9D9" fill-opacity="0.25"/>
<path d="M22.1308 16.7738C22.2842 15.723 22.2948 14.6458 22.1308 13.5207L19.6172 12.8009C19.4221 12.0908 19.1409 11.4166 18.7852 10.79L20.0553 8.49932C19.4061 7.62514 18.632 6.84953 17.7596 6.19901L15.4734 7.47163C14.8481 7.11523 14.1757 6.83346 13.4665 6.63793L12.7482 4.11932C11.6995 3.96559 10.6244 3.95496 9.50158 4.11932L8.78329 6.63793C8.0746 6.83344 7.40174 7.11521 6.77643 7.47163L4.49032 6.19901C3.61788 6.84953 2.84382 7.62514 2.1946 8.49932L3.46468 10.79C3.10899 11.4166 2.82778 12.0904 2.63265 12.8009L0.119083 13.5207C-0.0343456 14.5716 -0.0449543 15.6488 0.119083 16.7738L2.63265 17.4936C2.82777 18.2037 3.10897 18.878 3.46468 19.5045L2.1946 21.7952C2.84382 22.6694 3.61788 23.445 4.49032 24.0955L6.77643 22.8229C7.40174 23.1793 8.07417 23.4611 8.78329 23.6566L9.50158 26.1752C10.5504 26.3289 11.6255 26.3395 12.7482 26.1752L13.4665 23.6566C14.1755 23.4611 14.8481 23.1793 15.4734 22.8229L17.7596 24.0955C18.632 23.445 19.4061 22.6694 20.0553 21.7952L18.7852 19.5045C19.1409 18.8779 19.4221 18.2042 19.6172 17.4936L22.1308 16.7738ZM11.1255 19.9247C8.4923 19.9247 6.35765 17.786 6.35765 15.1472C6.35765 12.5088 8.49209 10.3698 11.1255 10.3698C13.7589 10.3698 15.8933 12.5086 15.8933 15.1472C15.8931 17.7855 13.7584 19.9247 11.1255 19.9247Z" fill="#D9D9D9" fill-opacity="0.25"/>
<path d="M14.16 15.1471C14.16 16.826 12.8018 18.1875 11.1259 18.1875C9.45002 18.1875 8.0918 16.8265 8.0918 15.1471C8.0918 13.4678 9.45002 12.1072 11.1259 12.1072C12.8018 12.107 14.16 13.468 14.16 15.1471Z" fill="#D9D9D9" fill-opacity="0.25"/>
</g>
<defs>
<clipPath id="clip0_1549_678">
<rect width="32" height="23" fill="white" transform="translate(0 4)"/>
</clipPath>
</defs>
</svg>
