<svg width="32" height="32" viewBox="0 0 32 32" fill="none" xmlns="http://www.w3.org/2000/svg">
<g clip-path="url(#clip0_1546_677)">
<path fill-rule="evenodd" clip-rule="evenodd" d="M9.81888 5.21175C12.8149 5.21175 15.2433 7.57275 15.2433 10.4855C15.2433 13.3982 12.8148 15.7593 9.81888 15.7593C6.82277 15.7593 4.39438 13.3982 4.39438 10.4855C4.39438 7.57275 6.82286 5.21175 9.81888 5.21175ZM22.182 1C25.1781 1 27.6065 3.36153 27.6065 6.27436C27.6065 9.18717 25.178 11.5481 22.182 11.5481C19.1859 11.5481 16.7576 9.1871 16.7576 6.27436C16.7576 3.36153 19.186 1 22.182 1ZM21.4523 25.7883H32V22.94C32 17.6898 27.5819 13.394 22.1819 13.394C19.1845 13.394 16.4902 14.7179 14.6856 16.7935C18.3141 18.4159 20.9574 21.7908 21.4523 25.7883ZM0 30H19.636V27.1511C19.636 21.9009 15.218 17.6059 9.81806 17.6059C4.41776 17.6059 0 21.9012 0 27.1511V30Z" fill="black"/>
</g>
<defs>
<clipPath id="clip0_1546_677">
<rect width="32" height="29" fill="white" transform="translate(0 1)"/>
</clipPath>
</defs>
</svg>
