<svg width="32" height="32" viewBox="0 0 32 32" fill="none" xmlns="http://www.w3.org/2000/svg">
<g clip-path="url(#clip0_1546_673)">
<path d="M31.7912 19.6964C31.6517 19.1719 31.4432 18.6653 31.147 18.1725L29.8804 18.3592C29.6524 18.0671 29.3932 17.81 29.1103 17.5908L29.2245 16.2532C28.7608 15.979 28.2612 15.7771 27.7421 15.6539L26.972 16.7264C26.6217 16.6897 26.2651 16.6978 25.9093 16.754L25.0892 15.7236C24.5897 15.8701 24.107 16.0889 23.6376 16.3998L23.8154 17.7294C23.5372 17.9688 23.2922 18.2409 23.0834 18.5378L21.8091 18.418C21.548 18.9044 21.3556 19.4291 21.2383 19.9741L22.2599 20.7824C22.2249 21.1501 22.2326 21.5245 22.2862 21.8979L21.3046 22.7588C21.4441 23.2832 21.6526 23.7899 21.9488 24.2827L23.2154 24.0959C23.4434 24.388 23.7027 24.6452 23.9855 24.8644L23.8714 26.202C24.3347 26.4761 24.8346 26.678 25.3537 26.8012L26.1239 25.7288C26.474 25.7655 26.8307 25.7574 27.1865 25.7012L28.0066 26.7316C28.5062 26.5851 28.9888 26.3663 29.4583 26.0554L29.2804 24.7258C29.5587 24.4864 29.8037 24.2143 30.0125 23.9173L31.2868 24.0372C31.5479 23.5508 31.7403 23.0261 31.8575 22.4811L30.8359 21.6727C30.8709 21.3051 30.8632 20.9307 30.8096 20.5572L31.7912 19.6964ZM27.494 23.4654C26.3165 24.0139 24.9384 23.4568 24.4156 22.2207C23.8931 20.9846 24.4238 19.5381 25.6014 18.9893C26.7789 18.4406 28.157 18.9979 28.6797 20.2339C29.2024 21.4701 28.6712 22.9167 27.494 23.4654Z" fill="black"/>
<path d="M22.1308 16.7738C22.2842 15.723 22.2948 14.6458 22.1308 13.5207L19.6172 12.8009C19.4221 12.0908 19.1409 11.4166 18.7852 10.79L20.0553 8.49932C19.4061 7.62514 18.632 6.84953 17.7596 6.19901L15.4734 7.47163C14.8481 7.11523 14.1757 6.83346 13.4665 6.63793L12.7482 4.11932C11.6995 3.96559 10.6244 3.95496 9.50158 4.11932L8.78329 6.63793C8.0746 6.83344 7.40174 7.11521 6.77643 7.47163L4.49032 6.19901C3.61788 6.84953 2.84382 7.62514 2.1946 8.49932L3.46468 10.79C3.10899 11.4166 2.82778 12.0904 2.63265 12.8009L0.119083 13.5207C-0.0343456 14.5716 -0.0449543 15.6488 0.119083 16.7738L2.63265 17.4936C2.82777 18.2037 3.10897 18.878 3.46468 19.5045L2.1946 21.7952C2.84382 22.6694 3.61788 23.445 4.49032 24.0955L6.77643 22.8229C7.40174 23.1793 8.07417 23.4611 8.78329 23.6566L9.50158 26.1752C10.5504 26.3289 11.6255 26.3395 12.7482 26.1752L13.4665 23.6566C14.1755 23.4611 14.8481 23.1793 15.4734 22.8229L17.7596 24.0955C18.632 23.445 19.4061 22.6694 20.0553 21.7952L18.7852 19.5045C19.1409 18.8779 19.4221 18.2042 19.6172 17.4936L22.1308 16.7738ZM11.1255 19.9247C8.4923 19.9247 6.35765 17.786 6.35765 15.1472C6.35765 12.5088 8.49209 10.3698 11.1255 10.3698C13.7589 10.3698 15.8933 12.5086 15.8933 15.1472C15.8931 17.7855 13.7584 19.9247 11.1255 19.9247Z" fill="black"/>
<path d="M14.16 15.147C14.16 16.8259 12.8018 18.1874 11.1259 18.1874C9.45002 18.1874 8.0918 16.8264 8.0918 15.147C8.0918 13.4676 9.45002 12.1071 11.1259 12.1071C12.8018 12.1068 14.16 13.4679 14.16 15.147Z" fill="black"/>
</g>
<defs>
<clipPath id="clip0_1546_673">
<rect width="32" height="23" fill="white" transform="translate(0 4)"/>
</clipPath>
</defs>
</svg>
