<svg width="165" height="165" viewBox="0 0 165 165" fill="none" xmlns="http://www.w3.org/2000/svg">
<path d="M101 162.917C95.0527 164.28 88.8605 165 82.5 165C76.1395 165 69.9473 164.28 64 162.917V154.684C69.9154 156.195 76.1137 157 82.5 157C88.8863 157 95.0846 156.195 101 154.684V162.917ZM152.052 126.889C145.331 137.398 136.292 146.281 125.658 152.821L119.825 146.988C130.655 140.706 139.758 131.775 146.244 121.081L152.052 126.889ZM17.9814 119.775C24.2552 130.611 33.1801 139.72 43.8691 146.215L38.0625 152.021C27.5583 145.293 18.6806 136.249 12.1475 125.61L17.9814 119.775ZM162.917 64C164.28 69.9473 165 76.1395 165 82.5C165 88.8605 164.28 95.0527 162.917 101H154.685C156.196 95.0847 157 88.8862 157 82.5C157 76.1138 156.196 69.9153 154.685 64H162.917ZM10.3154 64C8.80393 69.9153 8 76.1138 8 82.5C8 88.8862 8.80393 95.0847 10.3154 101H2.08301C0.720443 95.0527 0 88.8605 0 82.5C0 76.1395 0.720443 69.9473 2.08301 64H10.3154ZM43.918 18.7549C33.2238 25.2414 24.2926 34.344 18.0107 45.1738L12.1777 39.3408C18.7181 28.7069 27.6013 19.6683 38.1104 12.9473L43.918 18.7549ZM125.61 12.1475C136.249 18.6806 145.293 27.5583 152.021 38.0625L146.215 43.8691C139.72 33.1801 130.611 24.2552 119.775 17.9814L125.61 12.1475ZM82.5 0C88.8604 0 95.0528 0.719498 101 2.08203V10.3154C95.0847 8.80393 88.8862 8 82.5 8C76.1138 8 69.9153 8.80393 64 10.3154V2.08203C69.9472 0.719498 76.1396 0 82.5 0Z" fill="#FAF60F"/>
</svg>
