<svg width="100" height="100" viewBox="0 0 100 100" fill="none" xmlns="http://www.w3.org/2000/svg">
<path d="M22.4096 18.8056C29.7608 12.2963 39.4291 8.34473 50.0203 8.34473C73.0319 8.34473 91.6869 26.9995 91.6869 50.0112C91.6869 58.8654 88.9253 67.0741 84.2165 73.8237L72.9369 50.0112H83.3536C83.3536 31.6019 68.4298 16.6781 50.0203 16.6781C40.6689 16.6781 32.2171 20.5287 26.1637 26.7309L22.4096 18.8056ZM77.6307 81.217C70.2794 87.7266 60.6115 91.6779 50.0203 91.6779C27.0083 91.6779 8.35352 73.0233 8.35352 50.0112C8.35352 41.1574 11.1151 32.9485 15.8239 26.1989L27.1035 50.0112H16.6868C16.6868 68.4208 31.6107 83.3445 50.0203 83.3445C59.3715 83.3445 67.8232 79.4941 73.8765 73.2916L77.6307 81.217ZM35.4368 58.3445H58.3536C59.504 58.3445 60.4369 57.412 60.4369 56.2612C60.4369 55.1108 59.504 54.1779 58.3536 54.1779H41.6869C35.9339 54.1779 31.2702 49.5145 31.2702 43.7612C31.2702 38.0084 35.9339 33.3447 41.6869 33.3447H45.8536V29.1781H54.1869V33.3447H64.6036V41.6779H41.6869C40.5363 41.6779 39.6035 42.6108 39.6035 43.7612C39.6035 44.912 40.5363 45.8445 41.6869 45.8445H58.3536C64.1065 45.8445 68.7703 50.5083 68.7703 56.2612C68.7703 62.0145 64.1065 66.6779 58.3536 66.6779H54.1869V70.8445H45.8536V66.6779H35.4368V58.3445Z" fill="black"/>
</svg>
