<svg width="100" height="100" viewBox="0 0 100 100" fill="none" xmlns="http://www.w3.org/2000/svg">
<path d="M50.0003 91.6672C29.2897 91.6672 12.5003 74.8781 12.5003 54.1672C12.5003 33.4567 29.2897 16.6673 50.0003 16.6673C70.7111 16.6673 87.5002 33.4567 87.5002 54.1672C87.5002 74.8781 70.7111 91.6672 50.0003 91.6672ZM50.0003 83.3339C66.1086 83.3339 79.1669 70.2756 79.1669 54.1672C79.1669 38.059 66.1086 25.0007 50.0003 25.0007C33.892 25.0007 20.8337 38.059 20.8337 54.1672C20.8337 70.2756 33.892 83.3339 50.0003 83.3339ZM54.1669 54.1672H66.6669V62.5006H45.8336V33.334H54.1669V54.1672ZM7.2793 26.1777L22.0107 11.4463L27.9033 17.3388L13.1718 32.0702L7.2793 26.1777ZM77.9898 11.4463L92.7215 26.1777L86.829 32.0702L72.0973 17.3388L77.9898 11.4463Z" fill="black"/>
<path d="M82.9781 96.572C90.4855 96.572 96.5715 90.486 96.5715 82.9786C96.5715 75.4712 90.4855 69.3853 82.9781 69.3853C75.4707 69.3853 69.3848 75.4712 69.3848 82.9786C69.3848 90.486 75.4707 96.572 82.9781 96.572ZM90.3962 79.522L81.6188 88.2994L75.8999 82.5805L77.8223 80.6581L81.6188 84.4546L88.4738 77.5996L90.3962 79.522Z" fill="black"/>
</svg>
