<svg width="100" height="100" viewBox="0 0 100 100" fill="none" xmlns="http://www.w3.org/2000/svg">
<path d="M72.3297 40.2404V20.1202C72.3289 19.2381 72.108 18.3718 71.6892 17.6081C71.2704 16.8444 70.6684 16.2102 69.9437 15.7692L53.2413 5.70906C52.5159 5.26758 51.693 5.03516 50.8553 5.03516C50.0176 5.03516 49.1947 5.26758 48.4692 5.70906L31.7669 15.7692C31.0422 16.2102 30.4402 16.8444 30.0214 17.6081C29.6026 18.3718 29.3817 19.2381 29.3809 20.1202V40.2404C29.3817 41.1225 29.6026 41.9888 30.0214 42.7525C30.4402 43.5162 31.0422 44.1504 31.7669 44.5914L48.4692 54.6515C49.1947 55.093 50.0176 55.3254 50.8553 55.3254C51.693 55.3254 52.5159 55.093 53.2413 54.6515L69.9437 44.5914C70.6684 44.1504 71.2704 43.5162 71.6892 42.7525C72.108 41.9888 72.3289 41.1225 72.3297 40.2404Z" stroke="black" stroke-width="6" stroke-linecap="round" stroke-linejoin="round"/>
<path d="M30.0254 17.5044L50.8556 30.2053L71.6858 17.5044" stroke="black" stroke-width="6" stroke-linecap="round" stroke-linejoin="round"/>
<path d="M50.8555 55.5317V30.1802" stroke="black" stroke-width="6" stroke-linecap="round" stroke-linejoin="round"/>
<path d="M92.8415 79.8796V59.7593C92.8406 58.8773 92.6197 58.0109 92.2009 57.2472C91.7821 56.4835 91.1801 55.8494 90.4554 55.4083L73.7531 45.3482C73.0276 44.9067 72.2047 44.6743 71.367 44.6743C70.5293 44.6743 69.7064 44.9067 68.981 45.3482L52.2786 55.4083C51.5539 55.8494 50.9519 56.4835 50.5331 57.2472C50.1143 58.0109 49.8934 58.8773 49.8926 59.7593V79.8796C49.8934 80.7617 50.1143 81.628 50.5331 82.3917C50.9519 83.1554 51.5539 83.7895 52.2786 84.2306L68.981 94.2907C69.7064 94.7322 70.5293 94.9646 71.367 94.9646C72.2047 94.9646 73.0276 94.7322 73.7531 94.2907L90.4554 84.2306C91.1801 83.7895 91.7821 83.1554 92.2009 82.3917C92.6197 81.628 92.8406 80.7617 92.8415 79.8796Z" stroke="black" stroke-width="6" stroke-linecap="round" stroke-linejoin="round"/>
<path d="M50.5371 57.1436L71.3673 69.8445L92.1975 57.1436" stroke="black" stroke-width="6" stroke-linecap="round" stroke-linejoin="round"/>
<path d="M71.3672 95.1708V69.8193" stroke="black" stroke-width="6" stroke-linecap="round" stroke-linejoin="round"/>
<path d="M50.1071 79.8796V59.7593C50.1062 58.8773 49.8853 58.0109 49.4665 57.2472C49.0477 56.4835 48.4458 55.8494 47.721 55.4083L31.0187 45.3482C30.2932 44.9067 29.4703 44.6743 28.6326 44.6743C27.795 44.6743 26.972 44.9067 26.2466 45.3482L9.54425 55.4083C8.81952 55.8494 8.21756 56.4835 7.79877 57.2472C7.37997 58.0109 7.15906 58.8773 7.1582 59.7593V79.8796C7.15906 80.7617 7.37997 81.628 7.79877 82.3917C8.21756 83.1554 8.81952 83.7895 9.54425 84.2306L26.2466 94.2907C26.972 94.7322 27.795 94.9646 28.6326 94.9646C29.4703 94.9646 30.2932 94.7322 31.0187 94.2907L47.721 84.2306C48.4458 83.7895 49.0477 83.1554 49.4665 82.3917C49.8853 81.628 50.1062 80.7617 50.1071 79.8796Z" stroke="black" stroke-width="6" stroke-linecap="round" stroke-linejoin="round"/>
<path d="M7.80273 57.1436L28.6329 69.8445L49.4631 57.1436" stroke="black" stroke-width="6" stroke-linecap="round" stroke-linejoin="round"/>
<path d="M28.6328 95.1708V69.8193" stroke="black" stroke-width="6" stroke-linecap="round" stroke-linejoin="round"/>
</svg>
