<svg width="100" height="100" viewBox="0 0 100 100" fill="none" xmlns="http://www.w3.org/2000/svg">
<path d="M66.6657 53.9131H33.9121" stroke="black" stroke-width="7" stroke-linecap="round" stroke-linejoin="round"/>
<path d="M50.4354 37.3911H34.7832" stroke="black" stroke-width="7" stroke-linecap="round" stroke-linejoin="round"/>
<path d="M60.8686 70.4346H33.9121" stroke="black" stroke-width="7" stroke-linecap="round" stroke-linejoin="round"/>
<path d="M87.5 33.3335V50.0002H79.1667V37.5002H58.3333V16.6668H20.8333V83.3335H45.8333V91.6668H16.6392C14.354 91.6668 12.5 89.8168 12.5 87.5343V12.466C12.5 10.2306 14.3696 8.3335 16.6759 8.3335H62.4867L87.5 33.3335ZM57.4404 63.8622C57.6025 60.8322 59.9408 58.3681 62.9583 58.0472L66.5862 57.6622C67.0171 57.6164 67.4229 57.4356 67.7454 57.146L70.4592 54.7081C72.7162 52.6797 76.1121 52.591 78.4725 54.4981L81.3104 56.791C81.6475 57.0631 82.0621 57.2222 82.495 57.2456L86.1379 57.4406C89.1679 57.6027 91.6321 59.941 91.9529 62.9585L92.3379 66.5864C92.3837 67.0172 92.5646 67.4231 92.8542 67.7456L95.2921 70.4593C97.3204 72.7164 97.4092 76.1122 95.5021 78.4727L93.2092 81.3106C92.9371 81.6477 92.7779 82.0622 92.7546 82.4952L92.5596 86.1381C92.3975 89.1681 90.0592 91.6322 87.0417 91.9531L83.4137 92.3381C82.9829 92.3839 82.5771 92.5647 82.2546 92.8543L79.5408 95.2922C77.2837 97.3206 73.8879 97.4093 71.5275 95.5022L68.6896 93.2093C68.3525 92.9372 67.9379 92.7781 67.505 92.7547L63.8621 92.5597C60.8321 92.3977 58.3679 90.0593 58.0471 87.0418L57.6621 83.4139C57.6162 82.9831 57.4354 82.5772 57.1458 82.2547L54.7079 79.541C52.6796 77.2839 52.5908 73.8877 54.4979 71.5277L56.7908 68.6897C57.0629 68.3527 57.2221 67.9381 57.2454 67.5052L57.4404 63.8622ZM87.6262 70.9597L83.2071 66.5406L72.9167 76.8306L66.7929 70.7072L62.3737 75.1264L72.9167 85.6697L87.6262 70.9597Z" fill="black"/>
</svg>
